<?xml version="1.0" encoding="UTF-8" standalone="no"?>
<!-- Created with Inkscape (http://www.inkscape.org/) -->

<svg
   xmlns:dc="http://purl.org/dc/elements/1.1/"
   xmlns:cc="http://creativecommons.org/ns#"
   xmlns:rdf="http://www.w3.org/1999/02/22-rdf-syntax-ns#"
   xmlns:svg="http://www.w3.org/2000/svg"
   xmlns="http://www.w3.org/2000/svg"
   xmlns:sodipodi="http://sodipodi.sourceforge.net/DTD/sodipodi-0.dtd"
   xmlns:inkscape="http://www.inkscape.org/namespaces/inkscape"
   width="210mm"
   height="297mm"
   viewBox="0 0 210 297"
   version="1.1"
   id="svg8"
   inkscape:export-filename="C:\Users\Turse\Desktop\iconLocal.png"
   inkscape:export-xdpi="102.00039"
   inkscape:export-ydpi="102.00039"
   inkscape:version="0.92.2 (5c3e80d, 2017-08-06)"
   sodipodi:docname="logoMain.svg">
  <defs
     id="defs2">
    <filter
       inkscape:collect="always"
       style="color-interpolation-filters:sRGB"
       id="filter3752"
       x="-0.024794193"
       width="1.0495884"
       y="-0.023255106"
       height="1.0465102">
      <feGaussianBlur
         inkscape:collect="always"
         stdDeviation="0.21327628"
         id="feGaussianBlur3754" />
    </filter>
    <filter
       inkscape:collect="always"
       style="color-interpolation-filters:sRGB"
       id="filter5744"
       x="-0.040649289"
       width="1.0812986"
       y="-0.10569384"
       height="1.2113877">
      <feGaussianBlur
         inkscape:collect="always"
         stdDeviation="0.63533766"
         id="feGaussianBlur5746" />
    </filter>
    <filter
       inkscape:collect="always"
       style="color-interpolation-filters:sRGB"
       id="filter6475"
       x="-0.13330007"
       width="1.2666001"
       y="-0.13330009"
       height="1.2666002">
      <feGaussianBlur
         inkscape:collect="always"
         stdDeviation="1.3487304"
         id="feGaussianBlur6477" />
    </filter>
  </defs>
  <sodipodi:namedview
     id="base"
     pagecolor="#ffffff"
     bordercolor="#666666"
     borderopacity="1.0"
     inkscape:pageopacity="0.0"
     inkscape:pageshadow="2"
     inkscape:zoom="2.8"
     inkscape:cx="204.82668"
     inkscape:cy="600.32841"
     inkscape:document-units="mm"
     inkscape:current-layer="layer1"
     showgrid="false"
     inkscape:window-width="1366"
     inkscape:window-height="745"
     inkscape:window-x="-8"
     inkscape:window-y="-8"
     inkscape:window-maximized="1"
     showguides="true"
     inkscape:guide-bbox="true" />
  <metadata
     id="metadata5">
    <rdf:RDF>
      <cc:Work
         rdf:about="">
        <dc:format>image/svg+xml</dc:format>
        <dc:type
           rdf:resource="http://purl.org/dc/dcmitype/StillImage" />
        <dc:title />
      </cc:Work>
    </rdf:RDF>
  </metadata>
  <g
     inkscape:label="Layer 1"
     inkscape:groupmode="layer"
     id="layer1">
    <text
       xml:space="preserve"
       style="font-style:normal;font-variant:normal;font-weight:normal;font-stretch:normal;font-size:20.69035339px;line-height:1.25;font-family:'Berlin Sans FB';-inkscape-font-specification:'Berlin Sans FB, Normal';font-variant-ligatures:normal;font-variant-caps:normal;font-variant-numeric:normal;font-feature-settings:normal;text-align:start;letter-spacing:0px;word-spacing:0px;writing-mode:lr-tb;text-anchor:start;fill:#323232;fill-opacity:1;stroke:#242122;stroke-width:0.24947399;stroke-miterlimit:4;stroke-dasharray:none;stroke-opacity:1;filter:url(#filter5744);"
       x="83.074478"
       y="110.06771"
       id="text4917-5-4"
       transform="matrix(0.72644203,0,0,1.3071203,-7.3521597,-0.81749004)"
       inkscape:export-filename="C:\Users\Turse\Desktop\logoSalesCenter.png"
       inkscape:export-xdpi="167.80807"
       inkscape:export-ydpi="167.80807"><tspan
         sodipodi:role="line"
         id="tspan4915-8-3"
         x="83.074478"
         y="110.06771"
         style="font-style:normal;font-variant:normal;font-weight:normal;font-stretch:normal;font-size:20.69035339px;font-family:'Berlin Sans FB';-inkscape-font-specification:'Berlin Sans FB, Normal';font-variant-ligatures:normal;font-variant-caps:normal;font-variant-numeric:normal;font-feature-settings:normal;text-align:start;writing-mode:lr-tb;text-anchor:start;fill:#323232;fill-opacity:1;stroke:#242122;stroke-width:0.24947399;stroke-miterlimit:4;stroke-dasharray:none;stroke-opacity:1;">sales</tspan></text>
    <ellipse
       style="opacity:1;fill:#323232;fill-opacity:1;stroke:none;stroke-width:2.1751287;stroke-miterlimit:4;stroke-dasharray:none;stroke-opacity:1;paint-order:markers stroke fill;filter:url(#filter6475)"
       id="path3164-9"
       cx="37.514137"
       cy="135.88765"
       rx="12.141603"
       ry="12.141602"
       transform="matrix(1.1592264,0,0,1.1576391,-7.2489157,-21.421193)"
       inkscape:export-filename="C:\Users\Turse\Desktop\logoSalesCenter.png"
       inkscape:export-xdpi="167.80807"
       inkscape:export-ydpi="167.80807" />
    <path
       style="opacity:0;fill:#ffffff;stroke:#000000;stroke-width:2.11666656;stroke-miterlimit:4;stroke-dasharray:none;stroke-opacity:1"
       id="path4844"
       d="m 111.10727,13.689766 c -0.19855,0.960191 -0.22915,1.945129 -0.26936,2.921799 -0.0467,1.446871 -0.0454,2.89442 -0.049,4.341842 0.007,1.572368 0.009,3.14267 -0.0754,4.713009 -0.12653,1.61172 -0.39036,3.20692 -0.55053,4.815081 -0.13906,1.393158 -0.1719,2.78938 -0.0137,4.18088 0.23358,1.1798 0.49732,2.351849 0.67028,3.542638 0.13292,1.221351 0.28226,2.4423 0.51921,3.648181 0.18127,0.749681 0.25268,1.511411 0.27796,2.27987 0.0134,1.096092 0.001,2.192461 -0.006,3.288601 -0.004,1.27063 2.6e-4,2.54127 -0.003,3.8119 0.0428,1.26652 -0.0501,2.525249 -0.2206,3.778869 -0.16784,1.204441 -0.50766,2.36815 -0.84666,3.53206 -0.41399,1.29272 -0.73845,2.60055 -0.91725,3.946091 -0.11701,1.024049 -0.13631,2.054681 -0.13305,3.08418 -0.0414,0.952489 0.0217,1.89852 0.10263,2.84676 0.126,1.124598 0.37511,2.232269 0.61733,3.336621 0.24889,0.989359 0.28912,2.008219 0.32156,3.022489 0.0255,1.093588 0.0228,2.187578 0.0222,3.281378 0.0591,0.94327 0.16897,1.88122 0.21886,2.82528 0.0477,1.06282 0.0392,2.12692 0.0413,3.19049 0.007,0.99812 0.0131,1.99629 0.0118,2.99445 -0.002,0.81655 0.0129,1.63307 0.0115,2.4496 0.002,0.67753 -0.0176,1.35248 0.0683,2.02549 0.096,0.58942 0.15636,1.18282 0.18876,1.77886 0.0152,0.61276 0.0189,1.22572 0.0214,1.83863 0.0203,0.55094 0.17648,1.07752 0.3168,1.60595 0.10148,0.54197 0.24826,1.07381 0.35472,1.61472 0,0 -3.47372,1.851735 -3.47372,1.851735 v 0 c -0.0949,-0.535265 -0.25429,-1.054635 -0.34038,-1.591455 -0.14291,-0.56153 -0.31738,-1.11382 -0.35992,-1.69616 0.002,-0.60685 0.007,-1.21405 -0.017,-1.82057 -0.0225,-0.58799 -0.0668,-1.17481 -0.15903,-1.7565 -0.0949,-0.69072 -0.10615,-1.37853 -0.0838,-2.0756 -0.001,-0.82077 0.0138,-1.64151 0.013,-2.4623 -3e-5,-1.00178 0.008,-2.00353 0.0124,-3.0053 -0.004,-1.05375 -0.0132,-2.10782 -0.0568,-3.16079 -0.0504,-0.95257 -0.14768,-1.90094 -0.21161,-2.8525 0.002,-1.09013 0.008,-2.18043 -0.0158,-3.27038 -0.0313,-0.992 -0.0836,-1.986209 -0.29282,-2.959638 -0.23293,-1.122032 -0.46819,-2.245392 -0.64009,-3.37834 -0.0859,-0.95386 -0.18658,-1.905931 -0.14805,-2.86557 0.0223,-1.053661 0.0496,-2.109481 0.17554,-3.156831 0.1694,-1.360099 0.4651,-2.686151 0.88324,-3.992449 0.31622,-1.153961 0.68428,-2.292961 0.86045,-3.48143 0.1839,-1.238681 0.31185,-2.480161 0.2545,-3.735292 -0.003,-1.270458 0.004,-2.540928 0.002,-3.811389 -0.006,-1.08258 -0.007,-2.165368 -0.0417,-3.24752 -0.0314,-0.751609 -0.0907,-1.50138 -0.23163,-2.241621 -0.20393,-1.2211 -0.33566,-2.451769 -0.48403,-3.680709 -0.1819,-1.19177 -0.46097,-2.36402 -0.68832,-3.547631 -0.16541,-1.424239 -0.11104,-2.850219 0.0231,-4.276259 0.15169,-1.60455 0.41237,-3.19455 0.55573,-4.799981 0.088,-1.562619 0.0924,-3.124428 0.0744,-4.689409 -0.001,-1.445509 -0.002,-2.891189 0.0147,-4.336571 0.0165,-0.97341 0.042,-1.948159 0.14109,-2.917259 0,0 3.55497,-1.738 3.55497,-1.738 z"
       inkscape:connector-curvature="0" />
    <ellipse
       style="opacity:0;fill:#ffffff;stroke:#000000;stroke-width:2.11666656;stroke-miterlimit:4;stroke-dasharray:none;stroke-opacity:1"
       id="path4869"
       cx="263.61829"
       cy="76.457253"
       rx="36.081387"
       ry="28.865108" />
    <ellipse
       style="opacity:0;fill:#000000;stroke:#000000;stroke-width:2.11666656;stroke-miterlimit:4;stroke-dasharray:none;stroke-opacity:1"
       id="path4871"
       cx="267.62735"
       cy="53.204811"
       rx="45.435822"
       ry="28.597839" />
    <ellipse
       style="opacity:0;fill:#000000;stroke:#000000;stroke-width:2.11666656;stroke-miterlimit:4;stroke-dasharray:none;stroke-opacity:1"
       id="path4873"
       cx="270.56732"
       cy="45.988518"
       rx="36.081387"
       ry="37.417732" />
    <ellipse
       style="opacity:0;fill:#000000;stroke:#000000;stroke-width:2.11666656;stroke-miterlimit:4;stroke-dasharray:none;stroke-opacity:1"
       id="path4877"
       cx="255.86749"
       cy="68.973701"
       rx="42.228584"
       ry="30.468725" />
    <text
       xml:space="preserve"
       style="font-style:normal;font-variant:normal;font-weight:normal;font-stretch:normal;font-size:20.69035339px;line-height:1.25;font-family:'Berlin Sans FB';-inkscape-font-specification:'Berlin Sans FB, Normal';font-variant-ligatures:normal;font-variant-caps:normal;font-variant-numeric:normal;font-feature-settings:normal;text-align:start;letter-spacing:0px;word-spacing:0px;writing-mode:lr-tb;text-anchor:start;fill:#242122;fill-opacity:1;stroke:#242122;stroke-width:0.24947399;stroke-miterlimit:4;stroke-dasharray:none;stroke-opacity:1"
       x="74.041245"
       y="103.13477"
       id="text4917-5"
       transform="scale(0.72172536,1.3855686)"
       inkscape:export-filename="C:\Users\Turse\Desktop\logoSalesCenter.png"
       inkscape:export-xdpi="167.80807"
       inkscape:export-ydpi="167.80807"><tspan
         sodipodi:role="line"
         id="tspan4915-8"
         x="74.041245"
         y="103.13477"
         style="font-style:normal;font-variant:normal;font-weight:normal;font-stretch:normal;font-size:20.69035339px;font-family:'Berlin Sans FB';-inkscape-font-specification:'Berlin Sans FB, Normal';font-variant-ligatures:normal;font-variant-caps:normal;font-variant-numeric:normal;font-feature-settings:normal;text-align:start;writing-mode:lr-tb;text-anchor:start;fill:#242122;fill-opacity:1;stroke:#242122;stroke-width:0.24947399;stroke-miterlimit:4;stroke-dasharray:none;stroke-opacity:1">sales</tspan></text>
    <text
       xml:space="preserve"
       style="font-style:italic;font-variant:normal;font-weight:normal;font-stretch:normal;font-size:10.68608665px;line-height:1.25;font-family:'Brush Script MT';-inkscape-font-specification:'Brush Script MT, Italic';font-variant-ligatures:normal;font-variant-caps:normal;font-variant-numeric:normal;font-feature-settings:normal;text-align:start;letter-spacing:0px;word-spacing:0px;writing-mode:lr-tb;text-anchor:start;opacity:0.98000004;fill:#919191;fill-opacity:1;stroke:none;stroke-width:0.12884603;stroke-miterlimit:4;stroke-dasharray:none;stroke-opacity:1"
       x="37.645317"
       y="209.02084"
       id="text4917-5-2"
       transform="scale(1.417942,0.70524747)"
       inkscape:export-filename="C:\Users\Turse\Desktop\logoSalesCenter.png"
       inkscape:export-xdpi="167.80807"
       inkscape:export-ydpi="167.80807"><tspan
         sodipodi:role="line"
         id="tspan4915-8-7"
         x="37.645317"
         y="209.02084"
         style="font-style:italic;font-variant:normal;font-weight:normal;font-stretch:normal;font-size:10.68608665px;font-family:'Brush Script MT';-inkscape-font-specification:'Brush Script MT, Italic';font-variant-ligatures:normal;font-variant-caps:normal;font-variant-numeric:normal;font-feature-settings:normal;text-align:start;writing-mode:lr-tb;text-anchor:start;fill:#919191;fill-opacity:1;stroke:none;stroke-width:0.12884603;stroke-miterlimit:4;stroke-dasharray:none;stroke-opacity:1">center</tspan></text>
    <ellipse
       style="opacity:0;fill:#f1f1f1;fill-opacity:1;stroke:#f1f1f1;stroke-width:0.1;stroke-miterlimit:4;stroke-dasharray:none;stroke-opacity:1"
       id="path3051"
       cx="112.22626"
       cy="55.473915"
       rx="37.608631"
       ry="33.072918" />
    <ellipse
       style="fill:#f1f1f1;fill-opacity:1;stroke:#242122;stroke-width:2.1751287;stroke-miterlimit:4;stroke-dasharray:none;stroke-opacity:1;paint-order:markers stroke fill"
       id="path3164"
       cx="37.455368"
       cy="135.56845"
       rx="12.141603"
       ry="12.141602"
       inkscape:export-filename="C:\Users\Turse\Desktop\logoSalesCenter.png"
       inkscape:export-xdpi="167.80807"
       inkscape:export-ydpi="167.80807" />
    <path
       id="path3701-1"
       style="opacity:0.98999999;fill:none;fill-opacity:1;stroke:#1b161c;stroke-width:0.78199998;stroke-miterlimit:4;stroke-dasharray:3.12799993,1.56399996,0.78199998,1.56399996;stroke-opacity:1;stroke-dashoffset:7.81999983;stroke-linejoin:round;stroke-linecap:round"
       sodipodi:type="arc"
       sodipodi:cx="37.583977"
       sodipodi:cy="135.5621"
       sodipodi:rx="10.86152"
       sodipodi:ry="11.005391"
       sodipodi:start="0.44942169"
       sodipodi:end="5.7889357"
       d="m 47.366931,140.34334 a 10.86152,11.005391 0 0 1 -12.084353,5.97427 10.86152,11.005391 0 0 1 -8.557393,-10.50885 10.86152,11.005391 0 0 1 8.08402,-10.88686 10.86152,11.005391 0 0 1 12.336438,5.41956"
       sodipodi:open="true"
       inkscape:export-filename="C:\Users\Turse\Desktop\logoSalesCenter.png"
       inkscape:export-xdpi="167.80807"
       inkscape:export-ydpi="167.80807" />
    <text
       xml:space="preserve"
       style="font-style:normal;font-variant:normal;font-weight:normal;font-stretch:normal;font-size:26.94050598px;line-height:1.25;font-family:Broadway;-inkscape-font-specification:'Broadway, Normal';font-variant-ligatures:normal;font-variant-caps:normal;font-variant-numeric:normal;font-feature-settings:normal;text-align:start;letter-spacing:0px;word-spacing:0px;writing-mode:lr-tb;text-anchor:start;fill:#242122;fill-opacity:1;stroke:#242122;stroke-width:0.32483444;stroke-miterlimit:4;stroke-dasharray:none;stroke-opacity:1;"
       x="27.871216"
       y="151.05673"
       id="text4917"
       transform="scale(1.0492454,0.95306585)"
       inkscape:export-filename="C:\Users\Turse\Desktop\logoSalesCenter.png"
       inkscape:export-xdpi="167.80807"
       inkscape:export-ydpi="167.80807"><tspan
         sodipodi:role="line"
         id="tspan4915"
         x="27.871216"
         y="151.05673"
         style="font-style:normal;font-variant:normal;font-weight:normal;font-stretch:normal;font-size:26.94050598px;font-family:Broadway;-inkscape-font-specification:'Broadway, Normal';font-variant-ligatures:normal;font-variant-caps:normal;font-variant-numeric:normal;font-feature-settings:normal;text-align:start;writing-mode:lr-tb;text-anchor:start;fill:#242122;fill-opacity:1;stroke:#242122;stroke-width:0.32483444;stroke-miterlimit:4;stroke-dasharray:none;stroke-opacity:1;">S</tspan></text>
    <path
       id="path3701-1-8"
       style="opacity:0.98999999;fill:none;fill-opacity:1;stroke:#1b161c;stroke-width:0.78200001;stroke-linecap:round;stroke-linejoin:round;stroke-miterlimit:4;stroke-dasharray:3.12799996, 1.56399997999999996, 0.78199998999999998, 1.56399997999999996;stroke-dashoffset:7.81999969;stroke-opacity:1;filter:url(#filter3752)"
       sodipodi:type="arc"
       sodipodi:cx="37.583977"
       sodipodi:cy="135.5621"
       sodipodi:rx="10.86152"
       sodipodi:ry="11.005391"
       sodipodi:start="0.44942169"
       sodipodi:end="5.7889357"
       d="m 47.366931,140.34334 a 10.86152,11.005391 0 0 1 -12.084353,5.97427 10.86152,11.005391 0 0 1 -8.557393,-10.50885 10.86152,11.005391 0 0 1 8.08402,-10.88686 10.86152,11.005391 0 0 1 12.336438,5.41956"
       sodipodi:open="true"
       inkscape:export-filename="C:\Users\Turse\Desktop\logoSalesCenter.png"
       inkscape:export-xdpi="167.80807"
       inkscape:export-ydpi="167.80807" />
  </g>
</svg>
